# xmcd
# Track frame offsets:
# 150
# 15186
# 30936
# 45033
# 57681
# 77325
# 97743
# 112113
# 127911
# 141492
# 156320
# 177375
# 189279
#
# Disc length: 2707 seconds
# Revision: 0
# Processed by: cddbd v1.4PL0 Copyright (c) Steve Scherf et al.
# Submitted via: VisiTrax 2.9.3.171 - For more info visit www.synapsa.com
#
DISCID=950a910d
DTITLE=Tom Adler - Borrowed Car
DYEAR=1900
DGENRE=
TTITLE0=Borrowed Car
TTITLE1=The Company of A Song
TTITLE2=After Him
TTITLE3=Holding Tank
TTITLE4=Cut and Run
TTITLE5=These Guys
TTITLE6=Emily
TTITLE7=Motel Walls
TTITLE8=Getting Home
TTITLE9=Leave A Message
TTITLE10=Lady Waiting
TTITLE11=Night Wind
TTITLE12=Sheet Lightning
EXTD=
EXTT0=
EXTT1=
EXTT2=
EXTT3=
EXTT4=
EXTT5=
EXTT6=
EXTT7=
EXTT8=
EXTT9=
EXTT10=
EXTT11=
EXTT12=
PLAYORDER=
